<svg width="20" height="20" viewBox="0 0 20 20" fill="none" xmlns="http://www.w3.org/2000/svg">
<path d="M14.1666 8.33317H15.8333C17.5 8.33317 18.3333 7.49984 18.3333 5.83317V4.1665C18.3333 2.49984 17.5 1.6665 15.8333 1.6665H14.1666C12.5 1.6665 11.6666 2.49984 11.6666 4.1665V5.83317C11.6666 7.49984 12.5 8.33317 14.1666 8.33317Z" stroke="#61656A" stroke-width="1.5" stroke-miterlimit="10" stroke-linecap="round" stroke-linejoin="round"/>
<path d="M4.16663 18.3332H5.83329C7.49996 18.3332 8.33329 17.4998 8.33329 15.8332V14.1665C8.33329 12.4998 7.49996 11.6665 5.83329 11.6665H4.16663C2.49996 11.6665 1.66663 12.4998 1.66663 14.1665V15.8332C1.66663 17.4998 2.49996 18.3332 4.16663 18.3332Z" stroke="#61656A" stroke-width="1.5" stroke-miterlimit="10" stroke-linecap="round" stroke-linejoin="round"/>
<path d="M4.99996 8.33317C6.84091 8.33317 8.33329 6.84079 8.33329 4.99984C8.33329 3.15889 6.84091 1.6665 4.99996 1.6665C3.15901 1.6665 1.66663 3.15889 1.66663 4.99984C1.66663 6.84079 3.15901 8.33317 4.99996 8.33317Z" stroke="#61656A" stroke-width="1.5" stroke-miterlimit="10" stroke-linecap="round" stroke-linejoin="round"/>
<path d="M15 18.3332C16.8409 18.3332 18.3333 16.8408 18.3333 14.9998C18.3333 13.1589 16.8409 11.6665 15 11.6665C13.159 11.6665 11.6666 13.1589 11.6666 14.9998C11.6666 16.8408 13.159 18.3332 15 18.3332Z" stroke="#61656A" stroke-width="1.5" stroke-miterlimit="10" stroke-linecap="round" stroke-linejoin="round"/>
</svg>
