<svg width="24" height="25" viewBox="0 0 24 25" fill="none" xmlns="http://www.w3.org/2000/svg">
<path d="M12 22.6763C17.5228 22.6763 22 18.1991 22 12.6763C22 7.15342 17.5228 2.67627 12 2.67627C6.47715 2.67627 2 7.15342 2 12.6763C2 18.1991 6.47715 22.6763 12 22.6763Z" stroke="white" stroke-width="1.5" stroke-linecap="round" stroke-linejoin="round"/>
<path d="M17 12.6763C17 15.4363 14.76 17.6763 12 17.6763V7.67627C14.76 7.67627 17 9.91627 17 12.6763Z" stroke="white" stroke-width="1.5" stroke-linecap="round" stroke-linejoin="round"/>
<path d="M12 7.67627V17.6763C9.24 17.6763 7 15.4363 7 12.6763C7 9.91627 9.24 7.67627 12 7.67627Z" stroke="white" stroke-width="1.5" stroke-linecap="round" stroke-linejoin="round"/>
<path d="M12 22.6763V17.6763" stroke="white" stroke-width="1.5" stroke-linecap="round" stroke-linejoin="round"/>
<path d="M12 7.67627V2.67627" stroke="white" stroke-width="1.5" stroke-linecap="round" stroke-linejoin="round"/>
</svg>
