<svg width="24" height="25" viewBox="0 0 24 25" fill="none" xmlns="http://www.w3.org/2000/svg">
<path d="M7 8.67627H4C2.9 8.67627 2 7.77627 2 6.67627V4.67627C2 3.57627 2.9 2.67627 4 2.67627H7C8.1 2.67627 9 3.57627 9 4.67627V6.67627C9 7.77627 8.1 8.67627 7 8.67627Z" stroke="white" stroke-width="1.5" stroke-linecap="round" stroke-linejoin="round"/>
<path d="M20.8 7.67627H17.2C16.54 7.67627 16 7.13626 16 6.47626V4.87628C16 4.21628 16.54 3.67627 17.2 3.67627H20.8C21.46 3.67627 22 4.21628 22 4.87628V6.47626C22 7.13626 21.46 7.67627 20.8 7.67627Z" stroke="white" stroke-width="1.5" stroke-linecap="round" stroke-linejoin="round"/>
<path d="M20.8 15.1763H17.2C16.54 15.1763 16 14.6363 16 13.9763V12.3763C16 11.7163 16.54 11.1763 17.2 11.1763H20.8C21.46 11.1763 22 11.7163 22 12.3763V13.9763C22 14.6363 21.46 15.1763 20.8 15.1763Z" stroke="white" stroke-width="1.5" stroke-linecap="round" stroke-linejoin="round"/>
<path d="M9 5.67627H16" stroke="white" stroke-width="1.5" stroke-miterlimit="10" stroke-linecap="round" stroke-linejoin="round"/>
<path d="M12.5 5.67627V18.6763C12.5 19.7763 13.4 20.6763 14.5 20.6763H16" stroke="white" stroke-width="1.5" stroke-miterlimit="10" stroke-linecap="round" stroke-linejoin="round"/>
<path d="M12.5 13.1763H16" stroke="white" stroke-width="1.5" stroke-miterlimit="10" stroke-linecap="round" stroke-linejoin="round"/>
<path d="M20.8 22.6763H17.2C16.54 22.6763 16 22.1363 16 21.4763V19.8763C16 19.2163 16.54 18.6763 17.2 18.6763H20.8C21.46 18.6763 22 19.2163 22 19.8763V21.4763C22 22.1363 21.46 22.6763 20.8 22.6763Z" stroke="white" stroke-width="1.5" stroke-linecap="round" stroke-linejoin="round"/>
</svg>
