<svg width="24" height="25" viewBox="0 0 24 25" fill="none" xmlns="http://www.w3.org/2000/svg">
<path d="M3.01001 11.8965V16.3865C3.01001 20.8765 4.81001 22.6765 9.30001 22.6765H14.69C19.18 22.6765 20.98 20.8765 20.98 16.3865V11.8965" stroke="white" stroke-width="1.5" stroke-linecap="round" stroke-linejoin="round"/>
<path d="M12 12.6763C13.83 12.6763 15.18 11.1863 15 9.35627L14.34 2.67627H9.66999L8.99999 9.35627C8.81999 11.1863 10.17 12.6763 12 12.6763Z" stroke="white" stroke-width="1.5" stroke-linecap="round" stroke-linejoin="round"/>
<path d="M18.31 12.6763C20.33 12.6763 21.81 11.0363 21.61 9.02627L21.33 6.27627C20.97 3.67627 19.97 2.67627 17.35 2.67627H14.3L15 9.68627C15.17 11.3363 16.66 12.6763 18.31 12.6763Z" stroke="white" stroke-width="1.5" stroke-linecap="round" stroke-linejoin="round"/>
<path d="M5.64 12.6763C7.29 12.6763 8.78 11.3363 8.94 9.68627L9.16 7.47627L9.64001 2.67627H6.59C3.97001 2.67627 2.97 3.67627 2.61 6.27627L2.34 9.02627C2.14 11.0363 3.62 12.6763 5.64 12.6763Z" stroke="white" stroke-width="1.5" stroke-linecap="round" stroke-linejoin="round"/>
<path d="M12 17.6763C10.33 17.6763 9.5 18.5063 9.5 20.1763V22.6763H14.5V20.1763C14.5 18.5063 13.67 17.6763 12 17.6763Z" stroke="white" stroke-width="1.5" stroke-linecap="round" stroke-linejoin="round"/>
</svg>
