<svg width="24" height="24" viewBox="0 0 24 24" fill="none" xmlns="http://www.w3.org/2000/svg">
<path d="M12.02 2.91016C8.70997 2.91016 6.01997 5.60016 6.01997 8.91016V11.8002C6.01997 12.4102 5.75997 13.3402 5.44997 13.8602L4.29997 15.7702C3.58997 16.9502 4.07997 18.2602 5.37997 18.7002C9.68997 20.1402 14.34 20.1402 18.65 18.7002C19.86 18.3002 20.39 16.8702 19.73 15.7702L18.58 13.8602C18.28 13.3402 18.02 12.4102 18.02 11.8002V8.91016C18.02 5.61016 15.32 2.91016 12.02 2.91016Z" stroke="#292D32" stroke-width="1.5" stroke-miterlimit="10" stroke-linecap="round"/>
<path d="M13.87 3.20043C13.56 3.11043 13.24 3.04043 12.91 3.00043C11.95 2.88043 11.03 2.95043 10.17 3.20043C10.46 2.46043 11.18 1.94043 12.02 1.94043C12.86 1.94043 13.58 2.46043 13.87 3.20043Z" stroke="#292D32" stroke-width="1.5" stroke-miterlimit="10" stroke-linecap="round" stroke-linejoin="round"/>
<path d="M15.02 19.0596C15.02 20.7096 13.67 22.0596 12.02 22.0596C11.2 22.0596 10.44 21.7196 9.90002 21.1796C9.36002 20.6396 9.02002 19.8796 9.02002 19.0596" stroke="#292D32" stroke-width="1.5" stroke-miterlimit="10"/>
</svg>
