<svg xmlns="http://www.w3.org/2000/svg" data-name="Layer 182" viewBox="0 0 51.56 51.56" id="roles-permission"><rect width="49.56" height="49.56" x="1" y="1" fill="none" stroke="#231f20" stroke-miterlimit="10" stroke-width="2" rx="6.99"></rect><path fill="none" stroke="#231f20" stroke-miterlimit="10" stroke-width="2" d="M40.47 23.79a3 3 0 0 0-1.62-2.66 3.71 3.71 0 0 1-1.72-1.86c0-.09-.07-.18-.11-.27a3.72 3.72 0 0 1-.1-2.57 3 3 0 0 0-3.76-3.75 3.73 3.73 0 0 1-2.57-.11l-.27-.11a3.57 3.57 0 0 1-1.85-1.72 3 3 0 0 0-5.33 0 3.57 3.57 0 0 1-1.85 1.72l-.27.11a3.73 3.73 0 0 1-2.57.11 3 3 0 0 0-3.75 3.75 3.72 3.72 0 0 1-.11 2.57l-.11.27a3.67 3.67 0 0 1-1.72 1.86 3 3 0 0 0 0 5.32 3.61 3.61 0 0 1 1.71 1.85c0 .09.07.19.11.28a3.7 3.7 0 0 1 .11 2.56 3 3 0 0 0 3.78 3.76 3.73 3.73 0 0 1 2.57.1l.27.12a3.59 3.59 0 0 1 1.85 1.71 3 3 0 0 0 5.33 0 3.59 3.59 0 0 1 1.85-1.71l.27-.12a3.73 3.73 0 0 1 2.57-.1 3 3 0 0 0 3.76-3.76 3.7 3.7 0 0 1 .1-2.56c0-.09.08-.19.11-.28a3.65 3.65 0 0 1 1.72-1.85 3 3 0 0 0 1.6-2.66Z"></path><path fill="none" stroke="#231f20" stroke-linecap="round" stroke-linejoin="round" stroke-width="2" d="M20.52 23.84 24 27.31l7.04-7.04"></path><path fill="none" stroke="#231f20" stroke-miterlimit="10" stroke-width="2" d="m16.19 34.72-2.87 5.38a.43.43 0 0 0 .46.62l4.07-.84a.41.41 0 0 1 .45.2l1.28 2.12a.44.44 0 0 0 .76 0l2.73-5.43m11.94-1.9 2.79 5.24a.43.43 0 0 1-.46.62l-4.07-.84a.41.41 0 0 0-.45.2l-1.28 2.12a.44.44 0 0 1-.76 0l-2.53-5"></path></svg>