<svg width="24" height="25" viewBox="0 0 24 25" fill="none" xmlns="http://www.w3.org/2000/svg">
<path d="M12 15.6763C13.6569 15.6763 15 14.3331 15 12.6763C15 11.0194 13.6569 9.67627 12 9.67627C10.3431 9.67627 9 11.0194 9 12.6763C9 14.3331 10.3431 15.6763 12 15.6763Z" stroke="#D5D8DD" stroke-width="1.5" stroke-miterlimit="10" stroke-linecap="round" stroke-linejoin="round"/>
<path d="M2 13.5562V11.7962C2 10.7562 2.85 9.89621 3.9 9.89621C5.71 9.89621 6.45 8.61621 5.54 7.04621C5.02 6.14621 5.33 4.97621 6.24 4.45621L7.97 3.46621C8.76 2.99621 9.78 3.27621 10.25 4.06621L10.36 4.25621C11.26 5.82621 12.74 5.82621 13.65 4.25621L13.76 4.06621C14.23 3.27621 15.25 2.99621 16.04 3.46621L17.77 4.45621C18.68 4.97621 18.99 6.14621 18.47 7.04621C17.56 8.61621 18.3 9.89621 20.11 9.89621C21.15 9.89621 22.01 10.7462 22.01 11.7962V13.5562C22.01 14.5962 21.16 15.4562 20.11 15.4562C18.3 15.4562 17.56 16.7362 18.47 18.3062C18.99 19.2162 18.68 20.3762 17.77 20.8962L16.04 21.8862C15.25 22.3562 14.23 22.0762 13.76 21.2862L13.65 21.0962C12.75 19.5262 11.27 19.5262 10.36 21.0962L10.25 21.2862C9.78 22.0762 8.76 22.3562 7.97 21.8862L6.24 20.8962C5.33 20.3762 5.02 19.2062 5.54 18.3062C6.45 16.7362 5.71 15.4562 3.9 15.4562C2.85 15.4562 2 14.5962 2 13.5562Z" stroke="#D5D8DD" stroke-width="1.5" stroke-miterlimit="10" stroke-linecap="round" stroke-linejoin="round"/>
</svg>
