<svg width="20" height="20" viewBox="0 0 20 20" fill="none" xmlns="http://www.w3.org/2000/svg">
<path d="M2.50836 9.34998V13.0916C2.50836 16.8333 4.00836 18.3333 7.75003 18.3333H12.2417C15.9834 18.3333 17.4834 16.8333 17.4834 13.0916V9.34998" stroke="#36393D" stroke-width="1.5" stroke-linecap="round" stroke-linejoin="round"/>
<path d="M9.99999 9.99996C11.525 9.99996 12.65 8.75829 12.5 7.23329L11.95 1.66663H8.05832L7.49999 7.23329C7.34999 8.75829 8.47499 9.99996 9.99999 9.99996Z" stroke="#36393D" stroke-width="1.5" stroke-linecap="round" stroke-linejoin="round"/>
<path d="M15.2584 9.99996C16.9417 9.99996 18.175 8.63329 18.0084 6.95829L17.775 4.66663C17.475 2.49996 16.6417 1.66663 14.4584 1.66663H11.9167L12.5 7.50829C12.6417 8.88329 13.8834 9.99996 15.2584 9.99996Z" stroke="#36393D" stroke-width="1.5" stroke-linecap="round" stroke-linejoin="round"/>
<path d="M4.70002 9.99996C6.07502 9.99996 7.31669 8.88329 7.45002 7.50829L7.63336 5.66663L8.03336 1.66663H5.49169C3.30836 1.66663 2.47502 2.49996 2.17502 4.66663L1.95002 6.95829C1.78336 8.63329 3.01669 9.99996 4.70002 9.99996Z" stroke="#36393D" stroke-width="1.5" stroke-linecap="round" stroke-linejoin="round"/>
<path d="M10 14.1666C8.60835 14.1666 7.91669 14.8583 7.91669 16.25V18.3333H12.0834V16.25C12.0834 14.8583 11.3917 14.1666 10 14.1666Z" stroke="#36393D" stroke-width="1.5" stroke-linecap="round" stroke-linejoin="round"/>
</svg>
