<svg width="20" height="20" viewBox="0 0 20 20" fill="none" xmlns="http://www.w3.org/2000/svg">
<path d="M2.50836 9.3501V13.0918C2.50836 16.8334 4.00836 18.3334 7.75003 18.3334H12.2417C15.9834 18.3334 17.4834 16.8334 17.4834 13.0918V9.3501" stroke="#7F56D9" stroke-width="1.5" stroke-linecap="round" stroke-linejoin="round"/>
<path d="M9.99999 9.99984C11.525 9.99984 12.65 8.75817 12.5 7.23317L11.95 1.6665H8.05832L7.49999 7.23317C7.34999 8.75817 8.47499 9.99984 9.99999 9.99984Z" stroke="#7F56D9" stroke-width="1.5" stroke-linecap="round" stroke-linejoin="round"/>
<path d="M15.2584 9.99984C16.9417 9.99984 18.175 8.63317 18.0084 6.95817L17.775 4.6665C17.475 2.49984 16.6417 1.6665 14.4584 1.6665H11.9167L12.5 7.50817C12.6417 8.88317 13.8834 9.99984 15.2584 9.99984Z" stroke="#7F56D9" stroke-width="1.5" stroke-linecap="round" stroke-linejoin="round"/>
<path d="M4.70002 9.99984C6.07502 9.99984 7.31669 8.88317 7.45002 7.50817L7.63336 5.6665L8.03336 1.6665H5.49169C3.30836 1.6665 2.47502 2.49984 2.17502 4.6665L1.95002 6.95817C1.78336 8.63317 3.01669 9.99984 4.70002 9.99984Z" stroke="#7F56D9" stroke-width="1.5" stroke-linecap="round" stroke-linejoin="round"/>
<path d="M10 14.1665C8.60835 14.1665 7.91669 14.8582 7.91669 16.2498V18.3332H12.0834V16.2498C12.0834 14.8582 11.3917 14.1665 10 14.1665Z" stroke="#7F56D9" stroke-width="1.5" stroke-linecap="round" stroke-linejoin="round"/>
</svg>
